# xmcd
#
# Track frame offsets: 
#        150
#        15448
#        28538
#        43253
#        54440
#        65963
#        81083
#        98780
#        113705
#        129895
#        143990
#        157730
#
# Disc length: 2299 seconds
#
# Revision: 4
# Processed by: cddbd v1.5.2PL0 Copyright (c) Steve Scherf et al.
# Submitted via: ExactAudioCopyFreeDBPlugin 1.0
#
DISCID=9508f90c
DTITLE=Don Williams - Currents
DYEAR=1992
DGENRE=Country
TTITLE0=Only Water (Shining In The Air)
TTITLE1=Too Much Love
TTITLE2=That Song About The River
TTITLE3=Catfish Bates
TTITLE4=Back On The Street Again
TTITLE5=So Far, So Good
TTITLE6=Gettin' Back Together Tonight
TTITLE7=In The Family
TTITLE8=Standing Knee Deep In A River (Dying Of Thirst)
TTITLE9=Lone Star State Of Mind
TTITLE10=The Old Trail
TTITLE11=It's Who You Love
EXTD=
EXTT0=
EXTT1=
EXTT2=
EXTT3=
EXTT4=
EXTT5=
EXTT6=
EXTT7=
EXTT8=
EXTT9=
EXTT10=
EXTT11=
PLAYORDER=
